<svg width="500" height="100" viewBox="0 0 500 100" fill="none" xmlns="http://www.w3.org/2000/svg">
<rect width="500" height="100" rx="10" fill="#1E88E5"/>
<path d="M89.6875 53.7422H94.5703C94.4141 55.6042 93.8932 57.2643 93.0078 58.7227C92.1224 60.168 90.8789 61.3073 89.2773 62.1406C87.6758 62.974 85.7292 63.3906 83.4375 63.3906C81.6797 63.3906 80.0977 63.0781 78.6914 62.4531C77.2852 61.8151 76.0807 60.9167 75.0781 59.7578C74.0755 58.5859 73.3073 57.1732 72.7734 55.5195C72.2526 53.8659 71.9922 52.0169 71.9922 49.9727V47.6094C71.9922 45.5651 72.2591 43.7161 72.793 42.0625C73.3398 40.4089 74.1211 38.9961 75.1367 37.8242C76.1523 36.6393 77.3698 35.7344 78.7891 35.1094C80.2214 34.4844 81.8294 34.1719 83.6133 34.1719C85.8789 34.1719 87.793 34.5885 89.3555 35.4219C90.918 36.2552 92.1289 37.4076 92.9883 38.8789C93.8607 40.3503 94.3945 42.0365 94.5898 43.9375H89.707C89.5768 42.7135 89.2904 41.6654 88.8477 40.793C88.418 39.9206 87.7799 39.2565 86.9336 38.8008C86.0872 38.332 84.9805 38.0977 83.6133 38.0977C82.4935 38.0977 81.5169 38.306 80.6836 38.7227C79.8503 39.1393 79.1536 39.7513 78.5938 40.5586C78.0339 41.3659 77.6107 42.362 77.3242 43.5469C77.0508 44.7188 76.9141 46.0599 76.9141 47.5703V49.9727C76.9141 51.4049 77.0378 52.707 77.2852 53.8789C77.5456 55.0378 77.9362 56.0339 78.457 56.8672C78.9909 57.7005 79.668 58.3451 80.4883 58.8008C81.3086 59.2565 82.2917 59.4844 83.4375 59.4844C84.8307 59.4844 85.957 59.263 86.8164 58.8203C87.6888 58.3776 88.3464 57.7331 88.7891 56.8867C89.2448 56.0273 89.5443 54.9792 89.6875 53.7422ZM103.594 33V63H98.8672V33H103.594ZM113.789 41.8672V63H109.062V41.8672H113.789ZM108.75 36.3203C108.75 35.6042 108.984 35.0117 109.453 34.543C109.935 34.0612 110.599 33.8203 111.445 33.8203C112.279 33.8203 112.936 34.0612 113.418 34.543C113.9 35.0117 114.141 35.6042 114.141 36.3203C114.141 37.0234 113.9 37.6094 113.418 38.0781C112.936 38.5469 112.279 38.7812 111.445 38.7812C110.599 38.7812 109.935 38.5469 109.453 38.0781C108.984 37.6094 108.75 37.0234 108.75 36.3203ZM127.578 59.6406C128.346 59.6406 129.036 59.4909 129.648 59.1914C130.273 58.8789 130.775 58.4492 131.152 57.9023C131.543 57.3555 131.758 56.724 131.797 56.0078H136.23C136.204 57.375 135.801 58.6185 135.02 59.7383C134.238 60.8581 133.203 61.75 131.914 62.4141C130.625 63.0651 129.199 63.3906 127.637 63.3906C126.022 63.3906 124.616 63.1172 123.418 62.5703C122.22 62.0104 121.224 61.2422 120.43 60.2656C119.635 59.2891 119.036 58.1628 118.633 56.8867C118.242 55.6107 118.047 54.2435 118.047 52.7852V52.1016C118.047 50.6432 118.242 49.276 118.633 48C119.036 46.7109 119.635 45.5781 120.43 44.6016C121.224 43.625 122.22 42.8633 123.418 42.3164C124.616 41.7565 126.016 41.4766 127.617 41.4766C129.31 41.4766 130.794 41.8151 132.07 42.4922C133.346 43.1562 134.349 44.0872 135.078 45.2852C135.82 46.4701 136.204 47.8503 136.23 49.4258H131.797C131.758 48.6445 131.562 47.9414 131.211 47.3164C130.872 46.6784 130.391 46.1706 129.766 45.793C129.154 45.4154 128.418 45.2266 127.559 45.2266C126.608 45.2266 125.82 45.4219 125.195 45.8125C124.57 46.1901 124.082 46.7109 123.73 47.375C123.379 48.026 123.125 48.7617 122.969 49.582C122.826 50.3893 122.754 51.2292 122.754 52.1016V52.7852C122.754 53.6576 122.826 54.5039 122.969 55.3242C123.112 56.1445 123.359 56.8802 123.711 57.5312C124.076 58.1693 124.57 58.6836 125.195 59.0742C125.82 59.4518 126.615 59.6406 127.578 59.6406ZM144.59 33V63H139.863V33H144.59ZM157.715 41.8672L148.516 52.0625L143.477 57.2188L142.246 53.2344L146.055 48.5273L152.031 41.8672H157.715ZM153.047 63L146.191 53.0781L149.16 49.7773L158.496 63H153.047ZM175.312 33V63H170.625V33H175.312ZM174.492 51.6523L172.969 51.6328C172.982 50.1745 173.184 48.8268 173.574 47.5898C173.978 46.3529 174.538 45.2786 175.254 44.3672C175.983 43.4427 176.855 42.7331 177.871 42.2383C178.887 41.7305 180.013 41.4766 181.25 41.4766C182.292 41.4766 183.229 41.6198 184.062 41.9062C184.909 42.1927 185.638 42.6549 186.25 43.293C186.862 43.918 187.324 44.7383 187.637 45.7539C187.962 46.7565 188.125 47.9805 188.125 49.4258V63H183.398V49.3867C183.398 48.3711 183.249 47.5638 182.949 46.9648C182.663 46.3659 182.24 45.9362 181.68 45.6758C181.12 45.4023 180.436 45.2656 179.629 45.2656C178.783 45.2656 178.034 45.4349 177.383 45.7734C176.745 46.112 176.211 46.5742 175.781 47.1602C175.352 47.7461 175.026 48.4232 174.805 49.1914C174.596 49.9596 174.492 50.7799 174.492 51.6523ZM202.207 63.3906C200.645 63.3906 199.232 63.1367 197.969 62.6289C196.719 62.1081 195.651 61.3854 194.766 60.4609C193.893 59.5365 193.223 58.4492 192.754 57.1992C192.285 55.9492 192.051 54.6016 192.051 53.1562V52.375C192.051 50.7214 192.292 49.224 192.773 47.8828C193.255 46.5417 193.926 45.3958 194.785 44.4453C195.645 43.4818 196.66 42.7461 197.832 42.2383C199.004 41.7305 200.273 41.4766 201.641 41.4766C203.151 41.4766 204.473 41.7305 205.605 42.2383C206.738 42.7461 207.676 43.4622 208.418 44.3867C209.173 45.2982 209.733 46.3854 210.098 47.6484C210.475 48.9115 210.664 50.3047 210.664 51.8281V53.8398H194.336V50.4609H206.016V50.0898C205.99 49.2435 205.82 48.4492 205.508 47.707C205.208 46.9648 204.746 46.3659 204.121 45.9102C203.496 45.4544 202.663 45.2266 201.621 45.2266C200.84 45.2266 200.143 45.3958 199.531 45.7344C198.932 46.0599 198.431 46.5352 198.027 47.1602C197.624 47.7852 197.311 48.5404 197.09 49.4258C196.882 50.2982 196.777 51.2812 196.777 52.375V53.1562C196.777 54.0807 196.901 54.9401 197.148 55.7344C197.409 56.5156 197.786 57.1992 198.281 57.7852C198.776 58.3711 199.375 58.8333 200.078 59.1719C200.781 59.4974 201.582 59.6602 202.48 59.6602C203.613 59.6602 204.622 59.4323 205.508 58.9766C206.393 58.5208 207.161 57.8763 207.812 57.043L210.293 59.4453C209.837 60.1094 209.245 60.7474 208.516 61.3594C207.786 61.9583 206.895 62.4466 205.84 62.8242C204.798 63.2018 203.587 63.3906 202.207 63.3906ZM219.062 45.8906V63H214.355V41.8672H218.848L219.062 45.8906ZM225.527 41.7305L225.488 46.1055C225.202 46.0534 224.889 46.0143 224.551 45.9883C224.225 45.9622 223.9 45.9492 223.574 45.9492C222.767 45.9492 222.057 46.0664 221.445 46.3008C220.833 46.5221 220.319 46.8477 219.902 47.2773C219.499 47.694 219.186 48.2018 218.965 48.8008C218.743 49.3997 218.613 50.0703 218.574 50.8125L217.5 50.8906C217.5 49.5625 217.63 48.332 217.891 47.1992C218.151 46.0664 218.542 45.0703 219.062 44.2109C219.596 43.3516 220.26 42.681 221.055 42.1992C221.862 41.7174 222.793 41.4766 223.848 41.4766C224.134 41.4766 224.44 41.5026 224.766 41.5547C225.104 41.6068 225.358 41.6654 225.527 41.7305ZM237.402 63.3906C235.84 63.3906 234.427 63.1367 233.164 62.6289C231.914 62.1081 230.846 61.3854 229.961 60.4609C229.089 59.5365 228.418 58.4492 227.949 57.1992C227.48 55.9492 227.246 54.6016 227.246 53.1562V52.375C227.246 50.7214 227.487 49.224 227.969 47.8828C228.451 46.5417 229.121 45.3958 229.98 44.4453C230.84 43.4818 231.855 42.7461 233.027 42.2383C234.199 41.7305 235.469 41.4766 236.836 41.4766C238.346 41.4766 239.668 41.7305 240.801 42.2383C241.934 42.7461 242.871 43.4622 243.613 44.3867C244.368 45.2982 244.928 46.3854 245.293 47.6484C245.671 48.9115 245.859 50.3047 245.859 51.8281V53.8398H229.531V50.4609H241.211V50.0898C241.185 49.2435 241.016 48.4492 240.703 47.707C240.404 46.9648 239.941 46.3659 239.316 45.9102C238.691 45.4544 237.858 45.2266 236.816 45.2266C236.035 45.2266 235.339 45.3958 234.727 45.7344C234.128 46.0599 233.626 46.5352 233.223 47.1602C232.819 47.7852 232.507 48.5404 232.285 49.4258C232.077 50.2982 231.973 51.2812 231.973 52.375V53.1562C231.973 54.0807 232.096 54.9401 232.344 55.7344C232.604 56.5156 232.982 57.1992 233.477 57.7852C233.971 58.3711 234.57 58.8333 235.273 59.1719C235.977 59.4974 236.777 59.6602 237.676 59.6602C238.809 59.6602 239.818 59.4323 240.703 58.9766C241.589 58.5208 242.357 57.8763 243.008 57.043L245.488 59.4453C245.033 60.1094 244.44 60.7474 243.711 61.3594C242.982 61.9583 242.09 62.4466 241.035 62.8242C239.993 63.2018 238.783 63.3906 237.402 63.3906ZM269.18 41.8672V45.3047H257.266V41.8672H269.18ZM260.703 36.6914H265.41V57.1602C265.41 57.8112 265.501 58.3125 265.684 58.6641C265.879 59.0026 266.146 59.2305 266.484 59.3477C266.823 59.4648 267.22 59.5234 267.676 59.5234C268.001 59.5234 268.314 59.5039 268.613 59.4648C268.913 59.4258 269.154 59.3867 269.336 59.3477L269.355 62.9414C268.965 63.0586 268.509 63.1628 267.988 63.2539C267.48 63.3451 266.895 63.3906 266.23 63.3906C265.15 63.3906 264.193 63.2018 263.359 62.8242C262.526 62.4336 261.875 61.8021 261.406 60.9297C260.938 60.0573 260.703 58.8984 260.703 57.4531V36.6914ZM271.445 52.668V52.2188C271.445 50.6953 271.667 49.2826 272.109 47.9805C272.552 46.6654 273.19 45.526 274.023 44.5625C274.87 43.5859 275.898 42.8307 277.109 42.2969C278.333 41.75 279.714 41.4766 281.25 41.4766C282.799 41.4766 284.18 41.75 285.391 42.2969C286.615 42.8307 287.65 43.5859 288.496 44.5625C289.342 45.526 289.987 46.6654 290.43 47.9805C290.872 49.2826 291.094 50.6953 291.094 52.2188V52.668C291.094 54.1914 290.872 55.6042 290.43 56.9062C289.987 58.2083 289.342 59.3477 288.496 60.3242C287.65 61.2878 286.621 62.043 285.41 62.5898C284.199 63.1237 282.826 63.3906 281.289 63.3906C279.74 63.3906 278.353 63.1237 277.129 62.5898C275.918 62.043 274.889 61.2878 274.043 60.3242C273.197 59.3477 272.552 58.2083 272.109 56.9062C271.667 55.6042 271.445 54.1914 271.445 52.668ZM276.152 52.2188V52.668C276.152 53.6185 276.25 54.5169 276.445 55.3633C276.641 56.2096 276.947 56.9518 277.363 57.5898C277.78 58.2279 278.314 58.7292 278.965 59.0938C279.616 59.4583 280.391 59.6406 281.289 59.6406C282.161 59.6406 282.917 59.4583 283.555 59.0938C284.206 58.7292 284.74 58.2279 285.156 57.5898C285.573 56.9518 285.879 56.2096 286.074 55.3633C286.283 54.5169 286.387 53.6185 286.387 52.668V52.2188C286.387 51.2812 286.283 50.3958 286.074 49.5625C285.879 48.7161 285.566 47.9674 285.137 47.3164C284.72 46.6654 284.186 46.1576 283.535 45.793C282.897 45.4154 282.135 45.2266 281.25 45.2266C280.365 45.2266 279.596 45.4154 278.945 45.793C278.307 46.1576 277.78 46.6654 277.363 47.3164C276.947 47.9674 276.641 48.7161 276.445 49.5625C276.25 50.3958 276.152 51.2812 276.152 52.2188ZM316.914 58.7617V48.6836C316.914 47.9284 316.777 47.2773 316.504 46.7305C316.23 46.1836 315.814 45.7604 315.254 45.4609C314.707 45.1615 314.017 45.0117 313.184 45.0117C312.415 45.0117 311.751 45.1419 311.191 45.4023C310.632 45.6628 310.195 46.0143 309.883 46.457C309.57 46.8997 309.414 47.401 309.414 47.9609H304.727C304.727 47.1276 304.928 46.3203 305.332 45.5391C305.736 44.7578 306.322 44.0612 307.09 43.4492C307.858 42.8372 308.776 42.3555 309.844 42.0039C310.911 41.6523 312.109 41.4766 313.438 41.4766C315.026 41.4766 316.432 41.7435 317.656 42.2773C318.893 42.8112 319.863 43.6185 320.566 44.6992C321.283 45.7669 321.641 47.1081 321.641 48.7227V58.1172C321.641 59.0807 321.706 59.9466 321.836 60.7148C321.979 61.4701 322.181 62.1276 322.441 62.6875V63H317.617C317.396 62.4922 317.22 61.8477 317.09 61.0664C316.973 60.2721 316.914 59.5039 316.914 58.7617ZM317.598 50.1484L317.637 53.0586H314.258C313.385 53.0586 312.617 53.1432 311.953 53.3125C311.289 53.4688 310.736 53.7031 310.293 54.0156C309.85 54.3281 309.518 54.7057 309.297 55.1484C309.076 55.5911 308.965 56.0924 308.965 56.6523C308.965 57.2122 309.095 57.7266 309.355 58.1953C309.616 58.651 309.993 59.0091 310.488 59.2695C310.996 59.5299 311.608 59.6602 312.324 59.6602C313.288 59.6602 314.128 59.4648 314.844 59.0742C315.573 58.6706 316.146 58.1823 316.562 57.6094C316.979 57.0234 317.201 56.4701 317.227 55.9492L318.75 58.0391C318.594 58.5729 318.327 59.1458 317.949 59.7578C317.572 60.3698 317.077 60.9557 316.465 61.5156C315.866 62.0625 315.143 62.5117 314.297 62.8633C313.464 63.2148 312.5 63.3906 311.406 63.3906C310.026 63.3906 308.796 63.1172 307.715 62.5703C306.634 62.0104 305.788 61.2617 305.176 60.3242C304.564 59.3737 304.258 58.2995 304.258 57.1016C304.258 55.9818 304.466 54.9922 304.883 54.1328C305.312 53.2604 305.938 52.5312 306.758 51.9453C307.591 51.3594 308.607 50.9167 309.805 50.6172C311.003 50.3047 312.37 50.1484 313.906 50.1484H317.598ZM335.195 59.6406C335.964 59.6406 336.654 59.4909 337.266 59.1914C337.891 58.8789 338.392 58.4492 338.77 57.9023C339.16 57.3555 339.375 56.724 339.414 56.0078H343.848C343.822 57.375 343.418 58.6185 342.637 59.7383C341.855 60.8581 340.82 61.75 339.531 62.4141C338.242 63.0651 336.816 63.3906 335.254 63.3906C333.639 63.3906 332.233 63.1172 331.035 62.5703C329.837 62.0104 328.841 61.2422 328.047 60.2656C327.253 59.2891 326.654 58.1628 326.25 56.8867C325.859 55.6107 325.664 54.2435 325.664 52.7852V52.1016C325.664 50.6432 325.859 49.276 326.25 48C326.654 46.7109 327.253 45.5781 328.047 44.6016C328.841 43.625 329.837 42.8633 331.035 42.3164C332.233 41.7565 333.633 41.4766 335.234 41.4766C336.927 41.4766 338.411 41.8151 339.688 42.4922C340.964 43.1562 341.966 44.0872 342.695 45.2852C343.438 46.4701 343.822 47.8503 343.848 49.4258H339.414C339.375 48.6445 339.18 47.9414 338.828 47.3164C338.49 46.6784 338.008 46.1706 337.383 45.793C336.771 45.4154 336.035 45.2266 335.176 45.2266C334.225 45.2266 333.438 45.4219 332.812 45.8125C332.188 46.1901 331.699 46.7109 331.348 47.375C330.996 48.026 330.742 48.7617 330.586 49.582C330.443 50.3893 330.371 51.2292 330.371 52.1016V52.7852C330.371 53.6576 330.443 54.5039 330.586 55.3242C330.729 56.1445 330.977 56.8802 331.328 57.5312C331.693 58.1693 332.188 58.6836 332.812 59.0742C333.438 59.4518 334.232 59.6406 335.195 59.6406ZM356.094 59.6406C356.862 59.6406 357.552 59.4909 358.164 59.1914C358.789 58.8789 359.29 58.4492 359.668 57.9023C360.059 57.3555 360.273 56.724 360.312 56.0078H364.746C364.72 57.375 364.316 58.6185 363.535 59.7383C362.754 60.8581 361.719 61.75 360.43 62.4141C359.141 63.0651 357.715 63.3906 356.152 63.3906C354.538 63.3906 353.132 63.1172 351.934 62.5703C350.736 62.0104 349.74 61.2422 348.945 60.2656C348.151 59.2891 347.552 58.1628 347.148 56.8867C346.758 55.6107 346.562 54.2435 346.562 52.7852V52.1016C346.562 50.6432 346.758 49.276 347.148 48C347.552 46.7109 348.151 45.5781 348.945 44.6016C349.74 43.625 350.736 42.8633 351.934 42.3164C353.132 41.7565 354.531 41.4766 356.133 41.4766C357.826 41.4766 359.31 41.8151 360.586 42.4922C361.862 43.1562 362.865 44.0872 363.594 45.2852C364.336 46.4701 364.72 47.8503 364.746 49.4258H360.312C360.273 48.6445 360.078 47.9414 359.727 47.3164C359.388 46.6784 358.906 46.1706 358.281 45.793C357.669 45.4154 356.934 45.2266 356.074 45.2266C355.124 45.2266 354.336 45.4219 353.711 45.8125C353.086 46.1901 352.598 46.7109 352.246 47.375C351.895 48.026 351.641 48.7617 351.484 49.582C351.341 50.3893 351.27 51.2292 351.27 52.1016V52.7852C351.27 53.6576 351.341 54.5039 351.484 55.3242C351.628 56.1445 351.875 56.8802 352.227 57.5312C352.591 58.1693 353.086 58.6836 353.711 59.0742C354.336 59.4518 355.13 59.6406 356.094 59.6406ZM377.676 63.3906C376.113 63.3906 374.701 63.1367 373.438 62.6289C372.188 62.1081 371.12 61.3854 370.234 60.4609C369.362 59.5365 368.691 58.4492 368.223 57.1992C367.754 55.9492 367.52 54.6016 367.52 53.1562V52.375C367.52 50.7214 367.76 49.224 368.242 47.8828C368.724 46.5417 369.395 45.3958 370.254 44.4453C371.113 43.4818 372.129 42.7461 373.301 42.2383C374.473 41.7305 375.742 41.4766 377.109 41.4766C378.62 41.4766 379.941 41.7305 381.074 42.2383C382.207 42.7461 383.145 43.4622 383.887 44.3867C384.642 45.2982 385.202 46.3854 385.566 47.6484C385.944 48.9115 386.133 50.3047 386.133 51.8281V53.8398H369.805V50.4609H381.484V50.0898C381.458 49.2435 381.289 48.4492 380.977 47.707C380.677 46.9648 380.215 46.3659 379.59 45.9102C378.965 45.4544 378.132 45.2266 377.09 45.2266C376.309 45.2266 375.612 45.3958 375 45.7344C374.401 46.0599 373.9 46.5352 373.496 47.1602C373.092 47.7852 372.78 48.5404 372.559 49.4258C372.35 50.2982 372.246 51.2812 372.246 52.375V53.1562C372.246 54.0807 372.37 54.9401 372.617 55.7344C372.878 56.5156 373.255 57.1992 373.75 57.7852C374.245 58.3711 374.844 58.8333 375.547 59.1719C376.25 59.4974 377.051 59.6602 377.949 59.6602C379.082 59.6602 380.091 59.4323 380.977 58.9766C381.862 58.5208 382.63 57.8763 383.281 57.043L385.762 59.4453C385.306 60.1094 384.714 60.7474 383.984 61.3594C383.255 61.9583 382.363 62.4466 381.309 62.8242C380.267 63.2018 379.056 63.3906 377.676 63.3906ZM401.66 57.2773C401.66 56.8086 401.543 56.3854 401.309 56.0078C401.074 55.6172 400.625 55.2656 399.961 54.9531C399.31 54.6406 398.346 54.3542 397.07 54.0938C395.951 53.8464 394.922 53.5534 393.984 53.2148C393.06 52.8633 392.266 52.4401 391.602 51.9453C390.938 51.4505 390.423 50.8646 390.059 50.1875C389.694 49.5104 389.512 48.7292 389.512 47.8438C389.512 46.9844 389.701 46.1706 390.078 45.4023C390.456 44.6341 390.996 43.957 391.699 43.3711C392.402 42.7852 393.255 42.3229 394.258 41.9844C395.273 41.6458 396.406 41.4766 397.656 41.4766C399.427 41.4766 400.944 41.776 402.207 42.375C403.483 42.9609 404.46 43.7617 405.137 44.7773C405.814 45.7799 406.152 46.9128 406.152 48.1758H401.445C401.445 47.6159 401.302 47.0951 401.016 46.6133C400.742 46.1185 400.326 45.7214 399.766 45.4219C399.206 45.1094 398.503 44.9531 397.656 44.9531C396.849 44.9531 396.178 45.0833 395.645 45.3438C395.124 45.5911 394.733 45.9167 394.473 46.3203C394.225 46.724 394.102 47.1667 394.102 47.6484C394.102 48 394.167 48.319 394.297 48.6055C394.44 48.8789 394.674 49.1328 395 49.3672C395.326 49.5885 395.768 49.7969 396.328 49.9922C396.901 50.1875 397.617 50.3763 398.477 50.5586C400.091 50.8971 401.478 51.3333 402.637 51.8672C403.809 52.388 404.707 53.0651 405.332 53.8984C405.957 54.7188 406.27 55.7604 406.27 57.0234C406.27 57.9609 406.068 58.8203 405.664 59.6016C405.273 60.3698 404.701 61.0404 403.945 61.6133C403.19 62.1732 402.285 62.6094 401.23 62.9219C400.189 63.2344 399.017 63.3906 397.715 63.3906C395.801 63.3906 394.18 63.0521 392.852 62.375C391.523 61.6849 390.514 60.806 389.824 59.7383C389.147 58.6576 388.809 57.5378 388.809 56.3789H393.359C393.411 57.2513 393.652 57.9479 394.082 58.4688C394.525 58.9766 395.072 59.3477 395.723 59.582C396.387 59.8034 397.07 59.9141 397.773 59.9141C398.62 59.9141 399.329 59.8034 399.902 59.582C400.475 59.3477 400.911 59.0352 401.211 58.6445C401.51 58.2409 401.66 57.7852 401.66 57.2773ZM422.246 57.2773C422.246 56.8086 422.129 56.3854 421.895 56.0078C421.66 55.6172 421.211 55.2656 420.547 54.9531C419.896 54.6406 418.932 54.3542 417.656 54.0938C416.536 53.8464 415.508 53.5534 414.57 53.2148C413.646 52.8633 412.852 52.4401 412.188 51.9453C411.523 51.4505 411.009 50.8646 410.645 50.1875C410.28 49.5104 410.098 48.7292 410.098 47.8438C410.098 46.9844 410.286 46.1706 410.664 45.4023C411.042 44.6341 411.582 43.957 412.285 43.3711C412.988 42.7852 413.841 42.3229 414.844 41.9844C415.859 41.6458 416.992 41.4766 418.242 41.4766C420.013 41.4766 421.53 41.776 422.793 42.375C424.069 42.9609 425.046 43.7617 425.723 44.7773C426.4 45.7799 426.738 46.9128 426.738 48.1758H422.031C422.031 47.6159 421.888 47.0951 421.602 46.6133C421.328 46.1185 420.911 45.7214 420.352 45.4219C419.792 45.1094 419.089 44.9531 418.242 44.9531C417.435 44.9531 416.764 45.0833 416.23 45.3438C415.71 45.5911 415.319 45.9167 415.059 46.3203C414.811 46.724 414.688 47.1667 414.688 47.6484C414.688 48 414.753 48.319 414.883 48.6055C415.026 48.8789 415.26 49.1328 415.586 49.3672C415.911 49.5885 416.354 49.7969 416.914 49.9922C417.487 50.1875 418.203 50.3763 419.062 50.5586C420.677 50.8971 422.064 51.3333 423.223 51.8672C424.395 52.388 425.293 53.0651 425.918 53.8984C426.543 54.7188 426.855 55.7604 426.855 57.0234C426.855 57.9609 426.654 58.8203 426.25 59.6016C425.859 60.3698 425.286 61.0404 424.531 61.6133C423.776 62.1732 422.871 62.6094 421.816 62.9219C420.775 63.2344 419.603 63.3906 418.301 63.3906C416.387 63.3906 414.766 63.0521 413.438 62.375C412.109 61.6849 411.1 60.806 410.41 59.7383C409.733 58.6576 409.395 57.5378 409.395 56.3789H413.945C413.997 57.2513 414.238 57.9479 414.668 58.4688C415.111 58.9766 415.658 59.3477 416.309 59.582C416.973 59.8034 417.656 59.9141 418.359 59.9141C419.206 59.9141 419.915 59.8034 420.488 59.582C421.061 59.3477 421.497 59.0352 421.797 58.6445C422.096 58.2409 422.246 57.7852 422.246 57.2773Z" fill="white"/>
</svg>
